<group>
sw_default=48
sw_lokey=48
sw_hikey=51
sw_last=48
sw_label=Normal
trigger=attack
ampeg_attack=0.004000
ampeg_release=0.100000

<region>
sample=Harmonica-Hohner-Special20-C/Sustains/Normal/Hohner-Special20_Normal_C3.wav
pitch_keycenter=60
lokey=60
hikey=62
volume=0.358320

<region>
sample=Harmonica-Hohner-Special20-C/Sustains/Normal/Hohner-Special20_Normal_E3.wav
pitch_keycenter=64
lokey=63
hikey=68
volume=-1.176557

<region>
sample=Harmonica-Hohner-Special20-C/Sustains/Normal/Hohner-Special20_Normal_C4.wav
pitch_keycenter=72
lokey=69
hikey=74
volume=0.625936

<region>
sample=Harmonica-Hohner-Special20-C/Sustains/Normal/Hohner-Special20_Normal_E4.wav
pitch_keycenter=76
lokey=75
hikey=77
tune=1
volume=1.460416

<region>
sample=Harmonica-Hohner-Special20-C/Sustains/Normal/Hohner-Special20_Normal_G4.wav
pitch_keycenter=79
lokey=78
hikey=81
volume=1.231638

<region>
sample=Harmonica-Hohner-Special20-C/Sustains/Normal/Hohner-Special20_Normal_C5.wav
pitch_keycenter=84
lokey=82
hikey=86
volume=2.810544

<region>
sample=Harmonica-Hohner-Special20-C/Sustains/Normal/Hohner-Special20_Normal_E5.wav
pitch_keycenter=88
lokey=87
hikey=89
tune=2
volume=-0.668357

<region>
sample=Harmonica-Hohner-Special20-C/Sustains/Normal/Hohner-Special20_Normal_G5.wav
pitch_keycenter=91
lokey=90
hikey=93
volume=-0.561123

<region>
sample=Harmonica-Hohner-Special20-C/Sustains/Normal/Hohner-Special20_Normal_C6.wav
pitch_keycenter=96
lokey=94
hikey=97
tune=-1
volume=-2.064106

<group>
sw_default=48
sw_lokey=48
sw_hikey=51
sw_last=48
sw_label=Normal
trigger=release
ampeg_attack=0.100000
ampeg_release=0.300000

<region>
sample=Harmonica-Hohner-Special20-C/Releases/Normal/Hohner-Special20_Normal_rel_C3.wav
pitch_keycenter=60
lokey=60
hikey=62
tune=-20
volume=5.346062

<region>
sample=Harmonica-Hohner-Special20-C/Releases/Normal/Hohner-Special20_Normal_rel_E3.wav
pitch_keycenter=64
lokey=63
hikey=68
tune=-3
volume=-4.454059

<region>
sample=Harmonica-Hohner-Special20-C/Releases/Normal/Hohner-Special20_Normal_rel_C4.wav
pitch_keycenter=72
lokey=69
hikey=74
tune=-7
volume=1.829397

<region>
sample=Harmonica-Hohner-Special20-C/Releases/Normal/Hohner-Special20_Normal_rel_E4.wav
pitch_keycenter=76
lokey=75
hikey=77
tune=-5
volume=7.247909

<region>
sample=Harmonica-Hohner-Special20-C/Releases/Normal/Hohner-Special20_Normal_rel_G4.wav
pitch_keycenter=79
lokey=78
hikey=81
tune=-3
volume=-2.816734

<region>
sample=Harmonica-Hohner-Special20-C/Releases/Normal/Hohner-Special20_Normal_rel_C5.wav
pitch_keycenter=84
lokey=82
hikey=86
tune=-1
volume=-2.031039

<region>
sample=Harmonica-Hohner-Special20-C/Releases/Normal/Hohner-Special20_Normal_rel_E5.wav
pitch_keycenter=88
lokey=87
hikey=89
tune=3
volume=1.591907

<region>
sample=Harmonica-Hohner-Special20-C/Releases/Normal/Hohner-Special20_Normal_rel_G5.wav
pitch_keycenter=91
lokey=90
hikey=93
tune=-4
volume=-3.471919

<region>
sample=Harmonica-Hohner-Special20-C/Releases/Normal/Hohner-Special20_Normal_rel_C6.wav
pitch_keycenter=96
lokey=94
hikey=97
tune=3
volume=8.622039



<group>
sw_default=48
sw_lokey=48
sw_hikey=51
sw_last=49
sw_label=Vib
trigger=attack
ampeg_attack=0.004000
ampeg_release=0.100000

<region>
sample=Harmonica-Hohner-Special20-C/Sustains/Vib/Hohner-Special20_Vib_C3.wav
pitch_keycenter=60
lokey=60
hikey=62
tune=1
volume=1.683441

<region>
sample=Harmonica-Hohner-Special20-C/Sustains/Vib/Hohner-Special20_Vib_E3.wav
pitch_keycenter=64
lokey=63
hikey=65
volume=0.012055

<region>
sample=Harmonica-Hohner-Special20-C/Sustains/Vib/Hohner-Special20_Vib_G3.wav
pitch_keycenter=67
lokey=66
hikey=69
volume=-0.490110

<region>
sample=Harmonica-Hohner-Special20-C/Sustains/Vib/Hohner-Special20_Vib_C4.wav
pitch_keycenter=72
lokey=70
hikey=74
volume=-0.831715

<region>
sample=Harmonica-Hohner-Special20-C/Sustains/Vib/Hohner-Special20_Vib_E4.wav
pitch_keycenter=76
lokey=75
hikey=77
offset=6
volume=1.322042

<region>
sample=Harmonica-Hohner-Special20-C/Sustains/Vib/Hohner-Special20_Vib_G4.wav
pitch_keycenter=79
lokey=78
hikey=81
tune=2
volume=3.300912

<region>
sample=Harmonica-Hohner-Special20-C/Sustains/Vib/Hohner-Special20_Vib_C5.wav
pitch_keycenter=84
lokey=82
hikey=86
offset=61
volume=1.608128

<region>
sample=Harmonica-Hohner-Special20-C/Sustains/Vib/Hohner-Special20_Vib_E5.wav
pitch_keycenter=88
lokey=87
hikey=89
tune=2
volume=-1.265319

<region>
sample=Harmonica-Hohner-Special20-C/Sustains/Vib/Hohner-Special20_Vib_G5.wav
pitch_keycenter=91
lokey=90
hikey=93
tune=-3
volume=0.496405

<region>
sample=Harmonica-Hohner-Special20-C/Sustains/Vib/Hohner-Special20_Vib_C6.wav
pitch_keycenter=96
lokey=94
hikey=97
volume=-2.357011

<group>
sw_default=48
sw_lokey=48
sw_hikey=51
sw_last=49
sw_label=Vib
trigger=release
ampeg_attack=0.100000
ampeg_release=0.300000

<region>
sample=Harmonica-Hohner-Special20-C/Releases/Vib/Hohner-Special20_Vib_rel_C3.wav
pitch_keycenter=60
lokey=60
hikey=62
tune=-14
volume=1.638394

<region>
sample=Harmonica-Hohner-Special20-C/Releases/Vib/Hohner-Special20_Vib_rel_E3.wav
pitch_keycenter=64
lokey=63
hikey=65
tune=-3
volume=-1.593008

<region>
sample=Harmonica-Hohner-Special20-C/Releases/Vib/Hohner-Special20_Vib_rel_G3.wav
pitch_keycenter=67
lokey=66
hikey=69
tune=-8
volume=5.844534

<region>
sample=Harmonica-Hohner-Special20-C/Releases/Vib/Hohner-Special20_Vib_rel_C4.wav
pitch_keycenter=72
lokey=70
hikey=74
volume=-5.176060

<region>
sample=Harmonica-Hohner-Special20-C/Releases/Vib/Hohner-Special20_Vib_rel_E4.wav
pitch_keycenter=76
lokey=75
hikey=77
tune=-7
volume=5.811513

<region>
sample=Harmonica-Hohner-Special20-C/Releases/Vib/Hohner-Special20_Vib_rel_G4.wav
pitch_keycenter=79
lokey=78
hikey=81
tune=-5
volume=7.890146

<region>
sample=Harmonica-Hohner-Special20-C/Releases/Vib/Hohner-Special20_Vib_rel_C5.wav
pitch_keycenter=84
lokey=82
hikey=86
tune=1
volume=-4.291182

<region>
sample=Harmonica-Hohner-Special20-C/Releases/Vib/Hohner-Special20_Vib_rel_E5.wav
pitch_keycenter=88
lokey=87
hikey=89
tune=1
volume=-5.081663

<region>
sample=Harmonica-Hohner-Special20-C/Releases/Vib/Hohner-Special20_Vib_rel_G5.wav
pitch_keycenter=91
lokey=90
hikey=93
tune=-8
volume=5.724896

<region>
sample=Harmonica-Hohner-Special20-C/Releases/Vib/Hohner-Special20_Vib_rel_C6.wav
pitch_keycenter=96
lokey=94
hikey=97
tune=4
volume=3.912012



<group>
sw_default=48
sw_lokey=48
sw_hikey=51
sw_last=50
sw_label=Soft
trigger=attack
ampeg_attack=0.004000
ampeg_release=0.100000

<region>
sample=Harmonica-Hohner-Special20-C/Sustains/Soft/Hohner-Special20_Soft_C3.wav
pitch_keycenter=60
lokey=60
hikey=62
volume=-2.156532

<region>
sample=Harmonica-Hohner-Special20-C/Sustains/Soft/Hohner-Special20_Soft_E3.wav
pitch_keycenter=64
lokey=63
hikey=65
volume=0.543056

<region>
sample=Harmonica-Hohner-Special20-C/Sustains/Soft/Hohner-Special20_Soft_G3.wav
pitch_keycenter=67
lokey=66
hikey=69
volume=0.346176

<region>
sample=Harmonica-Hohner-Special20-C/Sustains/Soft/Hohner-Special20_Soft_C4.wav
pitch_keycenter=72
lokey=70
hikey=74
volume=0.371071

<region>
sample=Harmonica-Hohner-Special20-C/Sustains/Soft/Hohner-Special20_Soft_E4.wav
pitch_keycenter=76
lokey=75
hikey=77
volume=3.148227

<region>
sample=Harmonica-Hohner-Special20-C/Sustains/Soft/Hohner-Special20_Soft_G4.wav
pitch_keycenter=79
lokey=78
hikey=81
offset=138
volume=0.269044

<region>
sample=Harmonica-Hohner-Special20-C/Sustains/Soft/Hohner-Special20_Soft_C5.wav
pitch_keycenter=84
lokey=82
hikey=86
volume=1.583285

<region>
sample=Harmonica-Hohner-Special20-C/Sustains/Soft/Hohner-Special20_Soft_E5.wav
pitch_keycenter=88
lokey=87
hikey=89
tune=1
volume=3.117896

<region>
sample=Harmonica-Hohner-Special20-C/Sustains/Soft/Hohner-Special20_Soft_G5.wav
pitch_keycenter=91
lokey=90
hikey=93
volume=7.152656

<region>
sample=Harmonica-Hohner-Special20-C/Sustains/Soft/Hohner-Special20_Soft_C6.wav
pitch_keycenter=96
lokey=94
hikey=97
tune=-2
volume=-6.651047

<group>
sw_default=48
sw_lokey=48
sw_hikey=51
sw_last=50
sw_label=Soft
trigger=release
ampeg_attack=0.100000
ampeg_release=0.300000

<region>
sample=Harmonica-Hohner-Special20-C/Releases/Soft/Hohner-Special20_Soft_rel_C3.wav
pitch_keycenter=60
lokey=60
hikey=62
tune=-6
volume=3.037144

<region>
sample=Harmonica-Hohner-Special20-C/Releases/Soft/Hohner-Special20_Soft_rel_E3.wav
pitch_keycenter=64
lokey=63
hikey=65
tune=-9
volume=0.638276

<region>
sample=Harmonica-Hohner-Special20-C/Releases/Soft/Hohner-Special20_Soft_rel_G3.wav
pitch_keycenter=67
lokey=66
hikey=69
tune=-4
volume=-2.471113

<region>
sample=Harmonica-Hohner-Special20-C/Releases/Soft/Hohner-Special20_Soft_rel_C4.wav
pitch_keycenter=72
lokey=70
hikey=74
tune=-3
volume=-1.693105

<region>
sample=Harmonica-Hohner-Special20-C/Releases/Soft/Hohner-Special20_Soft_rel_E4.wav
pitch_keycenter=76
lokey=75
hikey=77
tune=-3
volume=2.389914

<region>
sample=Harmonica-Hohner-Special20-C/Releases/Soft/Hohner-Special20_Soft_rel_G4.wav
pitch_keycenter=79
lokey=78
hikey=81
tune=-5
volume=4.062811

<region>
sample=Harmonica-Hohner-Special20-C/Releases/Soft/Hohner-Special20_Soft_rel_C5.wav
pitch_keycenter=84
lokey=82
hikey=86
tune=-4
volume=-0.269444

<region>
sample=Harmonica-Hohner-Special20-C/Releases/Soft/Hohner-Special20_Soft_rel_E5.wav
pitch_keycenter=88
lokey=87
hikey=89
tune=-6
volume=-3.811125

<region>
sample=Harmonica-Hohner-Special20-C/Releases/Soft/Hohner-Special20_Soft_rel_G5.wav
pitch_keycenter=91
lokey=90
hikey=93
tune=-6
volume=0.182892

<region>
sample=Harmonica-Hohner-Special20-C/Releases/Soft/Hohner-Special20_Soft_rel_C6.wav
pitch_keycenter=96
lokey=94
hikey=97
tune=-2
volume=3.899152



